<svg id="canvas" height="auto" xmlns="http://www.w3.org/2000/svg" version="1.1" xmlns:xlink="http://www.w3.org/1999/xlink" viewBox="0 0 900 512" width="auto" style="width: auto; height: auto;"><defs><linearGradient gradientTransform="matrix(6.123233995736766e-17,1,-1,6.123233995736766e-17,0,0)" id="SvgjsLinearGradient1006"><stop stop-color="#862cf5" offset="0"/><stop stop-color="hsv(327, 82%, 96%)" offset="1"/></linearGradient><linearGradient gradientTransform="matrix(6.123233995736766e-17,1,-1,6.123233995736766e-17,0,0)" id="SvgjsLinearGradient1007"><stop stop-color="#511b94" offset="0"/><stop stop-color="hsv(327, 82%, 58%)" offset="1"/></linearGradient><linearGradient gradientTransform="matrix(6.123233995736766e-17,1,-1,6.123233995736766e-17,0,0)" id="SvgjsLinearGradient1008"><stop stop-color="#6321b5" offset="0"/><stop stop-color="hsv(327, 82%, 71%)" offset="1"/></linearGradient><linearGradient gradientTransform="matrix(6.123233995736766e-17,1,-1,6.123233995736766e-17,0,0)" id="SvgjsLinearGradient1009"><stop stop-color="#7426d4" offset="0"/><stop stop-color="hsv(327, 82%, 83%)" offset="1"/></linearGradient><linearGradient gradientTransform="matrix(6.123233995736766e-17,1,-1,6.123233995736766e-17,0,0)" id="SvgjsLinearGradient1010"><stop stop-color="#2e0f54" offset="0"/><stop stop-color="hsv(327, 82%, 33%)" offset="1"/></linearGradient><linearGradient gradientTransform="matrix(6.123233995736766e-17,1,-1,6.123233995736766e-17,0,0)" id="SvgjsLinearGradient1011"><stop stop-color="#401575" offset="0"/><stop stop-color="hsv(327, 82%, 46%)" offset="1"/></linearGradient><linearGradient gradientTransform="matrix(6.123233995736766e-17,1,-1,6.123233995736766e-17,0,0)"><stop stop-color="#1d0a36" offset="0"/><stop stop-color="hsv(327, 82%, 21%)" offset="1"/></linearGradient></defs><rect width="900" height="512" fill="url(#SvgjsLinearGradient1006)"/><path d="M0,512C0,432.5475695558602,-18.75,112.89485989592544,0,35.28541733516129C18.75,-42.32402522560286,75,36.86485371517537,112.5,46.34334463541505C150,55.82183555565473,187.5,80.14396722843456,225,92.15636285659936C262.5,104.16875848476415,300,120.66389253213165,337.5,118.41771840440383C375,116.171544276676,412.5,83.61191814385795,450,78.67931809023236C487.5,73.74671803660677,525,91.44725279269919,562.5,88.8221180826503C600,86.19698337260142,637.5,64.04381355059213,675,62.928509829939046C712.5,61.813206109285964,750,85.2741991710229,787.5,82.1302957587318C825,78.98639234644071,880.9166666666666,-27.913194684018897,900,44.065089356192466C919.0833333333334,116.04337339640384,901.6666666666666,435.67751489269875,902,514" fill="url(#SvgjsLinearGradient1007)" opacity="0.9"/><path d="M0,512C0,457.2585988423726,-18.75,237.64340333720983,0,183.55159305423533C18.75,129.45978277126082,75,177.13932213334994,112.5,187.4491383021529C150,197.75895447095587,187.5,232.7035425291372,225,245.41049006705308C262.5,258.1174376049689,300,269.3945526344862,337.5,263.6908235296481C375,257.98709442481004,412.5,220.19714762016176,450,211.18811543802465C487.5,202.17908325588755,525,217.64069940733984,562.5,209.63663043682544C600,201.63256146631105,637.5,170.1938709709086,675,163.16370161493828C712.5,156.13353225896796,750,164.71067935480232,787.5,167.4556143010035C825,170.20054924720466,880.9166666666666,121.87591367564593,900,179.63331129214535C919.0833333333334,237.39070890864477,901.6666666666666,458.2722185486909,902,514" fill="url(#SvgjsLinearGradient1008)" opacity="0.9"/><path d="M0,512C0,481.30641453813996,-18.75,356.1650187811645,0,327.8384872288399C18.75,299.51195567651524,75,333.9326933655429,112.5,342.0408106860521C150,350.14892800656133,187.5,364.51277758908185,225,376.4871911518953C262.5,388.4616047147087,300,413.6193803803581,337.5,413.88729206293254C375,414.155203745507,412.5,385.6283581683095,450,378.09466124734183C487.5,370.5609643263742,525,386.55638386946595,562.5,368.68511053712655C600,350.81383720478715,637.5,284.05507314176117,675,270.86702125330544C712.5,257.6789693648497,750,282.6889726302445,787.5,289.55679920639227C825,296.42462578254003,880.9166666666666,274.6667805779242,900,312.0739807101922C919.0833333333334,349.48118084246016,901.6666666666666,480.34566345169867,902,514" fill="url(#SvgjsLinearGradient1009)" opacity="0.9"/><path d="M0,512C0,505.81282924340735,-18.75,486.7405629127707,0,474.8769754604442C18.75,463.0133880081177,75,434.88471586025855,112.5,440.818475286041C150,446.75223471182346,187.5,501.64429963788444,225,510.47953201513906C262.5,519.3147643923937,300,491.6880413494736,337.5,493.8298695495687C375,495.97169774966375,412.5,528.472931614434,450,523.3305012157093C487.5,518.1880708169847,525,488.843766049392,562.5,462.97528715722126C600,437.1068082650505,637.5,375.2719151982958,675,368.11962786268487C712.5,360.96734052707393,750,404.9516607510447,787.5,420.0615631435558C825,435.17146553606693,880.9166666666666,443.122636075011,900,458.7790422177517C919.0833333333334,474.4354483604924,901.6666666666666,504.7965070362919,902,514" fill="url(#SvgjsLinearGradient1010)" opacity="0.9"/><path d="M0,512C0,534.5051838345503,-18.75,645.9851172373526,0,647.031103007302C18.75,648.0770887772514,75,522.6303144807015,112.5,518.2759146196966C150,513.9215147586916,187.5,607.8017775860577,225,620.9047038412726C262.5,634.0076300964876,300,585.2846647049746,337.5,596.8934721509859C375,608.5022795969971,412.5,695.1839307881022,450,690.5575485173401C487.5,685.9311662465781,525,599.1908658681988,562.5,569.1351785264133C600,539.0794911846277,637.5,519.7057583392616,675,510.2234244666267C712.5,500.7410905939917,750,499.41499709324114,787.5,512.2411752906035C825,525.0673534879658,880.9166666666666,586.8873561992347,900,587.1804936508007C919.0833333333334,587.4736311023668,901.6666666666666,526.1967489418001,902,514" fill="url(#SvgjsLinearGradient1011)" opacity="0.9"/></svg>